<svg width="123" height="38" xmlns="http://www.w3.org/2000/svg">

 <g>
  <title>background</title>
  <rect fill="none" id="canvas_background" height="402" width="582" y="-1" x="-1"/>
 </g>
 <g>
  <title>Layer 1</title>
  <path id="svg_2" fill="#07152A" d="m26.3925,19.1611c0.010201,-0.7878 0.2208,-1.560301 0.612101,-2.245501c0.3913,-0.6852 0.9506,-1.2609 1.625999,-1.6736c-0.429001,-0.6089 -0.995001,-1.1101 -1.653,-1.463599c-0.658001,-0.353601 -1.3899,-0.549701 -2.1376,-0.573c-1.594801,-0.166401 -3.1409,0.9485 -3.9536,0.9485c-0.828501,0 -2.0798,-0.932 -3.4272,-0.9044c-0.8715,0.028 -1.7209,0.279799 -2.4654,0.7311c-0.7445,0.4512 -1.3587,1.0864 -1.782701,1.843699c-1.8368,3.1606 -0.4667,7.805501 1.2928,10.360301c0.880301,1.250999 1.909101,2.648399 3.255401,2.598799c1.317299,-0.0543 1.809299,-0.834799 3.3995,-0.834799c1.5753,0 2.0369,0.834799 3.4105,0.803299c1.4135,-0.0228 2.304201,-1.256599 3.153601,-2.5194c0.6325,-0.891399 1.1192,-1.876499 1.442101,-2.919001c-0.821201,-0.3452 -1.5221,-0.923 -2.0151,-1.6614c-0.493,-0.738499 -0.7565,-1.604799 -0.757401,-2.490999l0,0z"/>
  <path id="svg_3" fill="#07152A" d="m23.798201,11.5262c0.7708,-0.9195 1.150499,-2.10145 1.0585,-3.29475c-1.177502,0.12291 -2.265202,0.68222 -3.046301,1.5665c-0.382,0.431951 -0.6745,0.93455 -0.860901,1.478951c-0.186298,0.544399 -0.262899,1.12 -0.225399,1.6939c0.589001,0.006 1.1717,-0.1209 1.704201,-0.3711c0.532398,-0.2502 1.000898,-0.6173 1.3699,-1.0735z"/>
  <path id="svg_4" fill="#07152A" d="m43.044601,23.1127l-4.495502,0l-1.079597,3.1682l-1.904102,0l4.258102,-11.721299l1.978298,0l4.258099,11.721299l-1.9366,0l-1.078697,-3.1682zm-4.0299,-1.461899l3.563499,0l-1.756702,-5.141701l-0.049198,0l-1.757599,5.141701z"/>
  <path id="svg_5" fill="#07152A" d="m55.256001,22.0089c0,2.6556 -1.430199,4.361801 -3.588501,4.361801c-0.5467,0.028399 -1.090401,-0.096701 -1.568901,-0.3612c-0.478397,-0.2644 -0.872299,-0.6574 -1.136497,-1.1339l-0.040901,0l0,4.2328l-1.764999,0l0,-11.3729l1.7085,0l0,1.4214l0.032501,0c0.276299,-0.4743 0.6768,-0.8652 1.158897,-1.1313c0.482201,-0.266001 1.027802,-0.3972 1.579002,-0.379501c2.182301,0 3.620899,1.7145 3.620899,4.362801zm-1.814201,0c0,-1.7302 -0.899601,-2.867701 -2.272301,-2.867701c-1.348598,0 -2.255699,1.161501 -2.255699,2.867701c0,1.7218 0.907101,2.875 2.255699,2.875c1.3727,0 2.272301,-1.1292 2.272301,-2.875z"/>
  <path id="svg_6" fill="#07152A" d="m64.719803,22.0089c0,2.6556 -1.430103,4.361801 -3.588402,4.361801c-0.5467,0.028399 -1.090401,-0.096701 -1.568901,-0.3612c-0.4785,-0.2644 -0.872398,-0.6574 -1.136501,-1.1339l-0.040897,0l0,4.2328l-1.765003,0l0,-11.3729l1.708401,0l0,1.4214l0.032501,0c0.276299,-0.4743 0.676899,-0.8652 1.159,-1.1313c0.482101,-0.266001 1.027798,-0.3972 1.578899,-0.379501c2.1824,0 3.620903,1.7145 3.620903,4.362801zm-1.814102,0c0,-1.7302 -0.8997,-2.867701 -2.2724,-2.867701c-1.348499,0 -2.2556,1.161501 -2.2556,2.867701c0,1.7218 0.907101,2.875 2.2556,2.875c1.3727,0 2.2724,-1.1292 2.2724,-2.875l0,0z"/>
  <path id="svg_7" fill="#07152A" d="m70.974701,23.0152c0.130798,1.1623 1.266998,1.925501 2.819595,1.925501c1.487701,0 2.558006,-0.763201 2.558006,-1.8113c0,-0.9098 -0.645599,-1.4545 -2.174004,-1.8279l-1.528496,-0.3659c-2.165703,-0.519899 -3.171104,-1.526501 -3.171104,-3.159901c0,-2.0223 1.773399,-3.4114 4.291504,-3.4114c2.492096,0 4.2005,1.3891 4.257996,3.4114l-1.7817,0c-0.106598,-1.169699 -1.079597,-1.875799 -2.501396,-1.875799c-1.421799,0 -2.394798,0.714399 -2.394798,1.7542c0,0.828699 0.621498,1.316299 2.141594,1.6896l1.2994,0.316999c2.4198,0.5688 3.425201,1.5348 3.425201,3.2493c0,2.1929 -1.757599,3.566299 -4.553001,3.566299c-2.615501,0 -4.381401,-1.341099 -4.495499,-3.461199l1.806702,0.000099z"/>
  <path id="svg_8" fill="#07152A" d="m82.026497,15.7139l0,2.022301l1.635201,0l0,1.3892l-1.635201,0l0,4.7111c0,0.731899 0.3274,1.073 1.046204,1.073c0.194099,-0.003401 0.387901,-0.016901 0.580597,-0.0406l0,1.3808c-0.323196,0.059999 -0.651596,0.0872 -0.980301,0.081099c-1.740898,0 -2.4198,-0.649799 -2.4198,-2.307199l0,-4.898199l-1.250298,0l0,-1.3892l1.250198,0l0,-2.022301l1.773399,0z"/>
  <path id="svg_9" fill="#07152A" d="m84.608398,22.0093c0,-2.688801 1.593399,-4.378401 4.078102,-4.378401c2.493103,0 4.079102,1.689501 4.079102,4.378401c0,2.696199 -1.577599,4.378399 -4.079102,4.378399c-2.500504,0 -4.078102,-1.682199 -4.078102,-4.378399zm6.358803,0c0,-1.8445 -0.850502,-2.9331 -2.280701,-2.9331c-1.430099,0 -2.279701,1.096899 -2.279701,2.9331c0,1.851799 0.849602,2.9321 2.279701,2.9321c1.430199,0 2.280701,-1.080301 2.280701,-2.9321l0,0z"/>
  <path id="svg_10" fill="#07152A" d="m94.220703,17.735399l1.683395,0l0,1.454601l0.040802,0c0.113899,-0.4543 0.381699,-0.855801 0.7584,-1.1369c0.376602,-0.2812 0.839203,-0.4249 1.309898,-0.407101c0.2034,-0.0007 0.406204,0.021299 0.604698,0.0655l0,1.640699c-0.256798,-0.077999 -0.524597,-0.1138 -0.792999,-0.105999c-0.256401,-0.0103 -0.512001,0.034599 -0.749298,0.131699c-0.237297,0.097101 -0.4506,0.244101 -0.625397,0.430901c-0.174706,0.1868 -0.306702,0.409 -0.386902,0.651199c-0.0802,0.2423 -0.106598,0.499001 -0.077599,0.752401l0,5.0688l-1.764999,0l0,-8.545801z"/>
  <path id="svg_11" fill="#07152A" d="m106.754997,23.7717c-0.237999,1.551399 -1.757996,2.615999 -3.702995,2.615999c-2.500999,0 -4.054001,-1.6656 -4.054001,-4.337898c0,-2.6805 1.560997,-4.418901 3.979996,-4.418901c2.379005,0 3.875,1.6241 3.875,4.2152l0,0.601l-6.072998,0l0,0.106001c-0.028,0.314499 0.011002,0.631399 0.116005,0.929499c0.104996,0.298101 0.271996,0.570702 0.490997,0.799601c0.218002,0.229 0.484001,0.409 0.778,0.528299c0.293999,0.119202 0.610001,0.174801 0.928001,0.1632c0.417,0.038801 0.835999,-0.057199 1.193001,-0.273699c0.357994,-0.2166 0.635994,-0.5422 0.792999,-0.928301l1.675995,0zm-5.966995,-2.550499l4.298996,0c0.015999,-0.282801 -0.027,-0.565802 -0.126999,-0.831202c-0.098999,-0.265499 -0.252998,-0.507599 -0.450996,-0.7113c-0.198006,-0.2036 -0.436005,-0.364399 -0.700005,-0.4722c-0.263,-0.1078 -0.545998,-0.160299 -0.831001,-0.154299c-0.287994,-0.001699 -0.571999,0.0532 -0.837997,0.161499c-0.265999,0.108301 -0.507996,0.2679 -0.711998,0.469601c-0.203003,0.201599 -0.364998,0.441299 -0.474998,0.705299c-0.109001,0.263901 -0.166,0.5469 -0.165001,0.832602l0,0z"/>
 </g>
</svg>