<svg width="40" height="40" viewBox="0 0 40 40" fill="none" xmlns="http://www.w3.org/2000/svg">
<path d="M24.9221 20.3003C24.933 19.4657 25.156 18.6473 25.5706 17.9213C25.9852 17.1954 26.5778 16.5854 27.2933 16.1483C26.8388 15.5031 26.2391 14.9722 25.542 14.5976C24.8449 14.2231 24.0695 14.0152 23.2774 13.9906C21.5878 13.8143 19.9497 14.9954 19.0887 14.9954C18.2111 14.9954 16.8854 14.0081 15.4579 14.0373C14.5345 14.0669 13.6347 14.3338 12.8459 14.8118C12.0572 15.2899 11.4065 15.9629 10.9573 16.7651C9.01131 20.1136 10.4628 25.0346 12.3269 27.7412C13.2595 29.0666 14.3495 30.547 15.7758 30.4945C17.1714 30.437 17.6927 29.61 19.3773 29.61C21.0464 29.61 21.5354 30.4945 22.9906 30.4611C24.4882 30.437 25.4317 29.1299 26.3316 27.792C27.0017 26.8476 27.5174 25.8039 27.8595 24.6995C26.9894 24.3338 26.2469 23.7216 25.7246 22.9393C25.2022 22.157 24.9232 21.2392 24.9221 20.3003Z" fill="#050A3C"/>
<path d="M22.1739 12.2113C22.9904 11.2371 23.3927 9.98494 23.2953 8.7207C22.0478 8.85092 20.8954 9.44348 20.0679 10.3803C19.6632 10.838 19.3533 11.3704 19.1559 11.9472C18.9584 12.524 18.8773 13.1337 18.9171 13.7417C19.5411 13.7481 20.1584 13.6137 20.7225 13.3486C21.2866 13.0835 21.7829 12.6946 22.1739 12.2113Z" fill="#050A3C"/>
</svg>
