<svg width="203" height="48" viewBox="0 0 203 48" fill="none" xmlns="http://www.w3.org/2000/svg">
<path d="M60.4805 21.3469C60.4805 14.6101 65.6362 9.2627 72.6781 9.2627C77.9595 9.2627 82.6541 12.6732 83.9535 17.6416H78.7978C77.8338 15.2837 75.2769 13.8943 72.6781 13.8943C68.235 13.8943 65.2589 17.1785 65.2589 21.3469C65.2589 25.5153 68.193 28.7995 72.6781 28.7995C75.2769 28.7995 77.8757 27.368 78.7978 25.0522H83.9535C82.6541 30.0206 77.9595 33.4311 72.6781 33.4311C65.6362 33.4311 60.4805 28.1259 60.4805 21.3469Z" fill="#062B61"/>
<path d="M86.2168 24.7994C86.2168 19.9994 90.0731 16.21 94.8515 16.21C99.63 16.21 103.486 19.9994 103.486 24.7994C103.486 29.6415 99.63 33.3889 94.8515 33.3889C90.0731 33.3889 86.2168 29.6415 86.2168 24.7994ZM98.8755 24.7994C98.8755 22.2731 97.1569 20.4205 94.8096 20.4205C92.4623 20.4205 90.7018 22.2731 90.7018 24.7994C90.7018 27.3258 92.4204 29.1784 94.8096 29.1784C97.1569 29.1784 98.8755 27.3679 98.8755 24.7994Z" fill="#062B61"/>
<path d="M106.756 39.9151V16.5888H111.241V18.4414C111.995 17.3888 113.714 16.252 115.977 16.252C120.337 16.252 123.69 20.2098 123.69 24.8414C123.69 29.473 120.337 33.4309 115.977 33.4309C113.714 33.4309 111.995 32.2941 111.241 31.2414V39.9572H106.756V39.9151ZM119.121 24.7993C119.121 22.1888 117.486 20.3362 115.013 20.3362C112.54 20.3362 110.906 22.2309 110.906 24.7993C110.906 27.4098 112.54 29.2625 115.013 29.2625C117.486 29.3046 119.121 27.4098 119.121 24.7993Z" fill="#062B61"/>
<path d="M127.63 39.9152L131.068 32.1257L124.193 16.5889H129.098L133.499 27.2415L137.858 16.5889H142.804L132.535 39.9152H127.63Z" fill="#062B61"/>
<path d="M145.319 9.68359H153.828C157.768 9.68359 160.744 12.7573 160.744 16.4625C160.744 18.2731 160.074 19.6204 158.9 20.631C160.954 21.6415 162.337 23.5362 162.337 26.1468C162.337 30.0204 159.277 33.0099 155.128 33.0099H145.277V9.68359H145.319ZM153.409 19.2415C155.086 19.2415 156.176 18.1046 156.176 16.631C156.176 15.1994 155.086 13.9783 153.409 13.9783H150.098V19.1994H153.409V19.2415ZM154.834 28.6731C156.637 28.6731 157.768 27.5362 157.768 26.0204C157.768 24.5046 156.637 23.3257 154.834 23.3257H150.098V28.6731H154.834Z" fill="#062B61"/>
<path d="M165.983 16.5893H170.468V19.242C171.013 17.642 172.69 16.4209 174.534 16.4209C175.037 16.4209 175.498 16.463 176.043 16.6314V21.2209C175.373 21.0104 174.786 20.842 174.031 20.842C171.894 20.842 170.51 22.4841 170.51 25.2209V33.0946H165.983V16.5893Z" fill="#062B61"/>
<path d="M177.804 24.7994C177.804 19.9994 181.66 16.21 186.438 16.21C191.217 16.21 195.073 19.9994 195.073 24.7994C195.073 29.6415 191.217 33.3889 186.438 33.3889C181.66 33.3889 177.804 29.6415 177.804 24.7994ZM190.504 24.7994C190.504 22.2731 188.786 20.4205 186.438 20.4205C184.091 20.4205 182.331 22.2731 182.331 24.7994C182.331 27.3258 184.049 29.1784 186.438 29.1784C188.744 29.1784 190.504 27.3679 190.504 24.7994Z" fill="#062B61"/>
<ellipse rx="14.1662" ry="14.1421" transform="matrix(0.258344 -0.966053 0.965798 0.259295 17.3182 29.6955)" fill="url(#paint0_linear_6935_22126)"/>
<ellipse rx="14.1662" ry="14.1421" transform="matrix(0.258344 -0.966053 0.965798 0.259295 30.3123 17.9523)" fill="url(#paint1_linear_6935_22126)" fill-opacity="0.9"/>
<defs>
<linearGradient id="paint0_linear_6935_22126" x1="3.9502" y1="31.9557" x2="21.5831" y2="-2.49927" gradientUnits="userSpaceOnUse">
<stop offset="0.0328499" stop-color="#050B41"/>
<stop offset="1" stop-color="#081477"/>
</linearGradient>
<linearGradient id="paint1_linear_6935_22126" x1="15.9915" y1="-2.2573" x2="0.0427826" y2="28.3065" gradientUnits="userSpaceOnUse">
<stop stop-color="#00CFFF"/>
<stop offset="1" stop-color="#0065FF"/>
<stop offset="1" stop-color="#005BEC"/>
</linearGradient>
</defs>
</svg>
