<svg width="136" height="31" viewBox="0 0 136 31" fill="none" xmlns="http://www.w3.org/2000/svg">
<path d="M0.480957 12.3469C0.480957 5.61006 5.63664 0.262695 12.6786 0.262695C17.96 0.262695 22.6546 3.67322 23.954 8.64164H18.7983C17.8343 6.28375 15.2774 4.89427 12.6786 4.89427C8.23545 4.89427 5.2594 8.17848 5.2594 12.3469C5.2594 16.5153 8.19353 19.7995 12.6786 19.7995C15.2774 19.7995 17.8762 18.368 18.7983 16.0522H23.954C22.6546 21.0206 17.96 24.4311 12.6786 24.4311C5.63664 24.4311 0.480957 19.1259 0.480957 12.3469Z" fill="#062B61"/>
<path d="M26.2178 15.7994C26.2178 10.9994 30.0741 7.20996 34.8525 7.20996C39.6309 7.20996 43.4872 10.9994 43.4872 15.7994C43.4872 20.6415 39.6309 24.3889 34.8525 24.3889C30.0741 24.3889 26.2178 20.6415 26.2178 15.7994ZM38.8765 15.7994C38.8765 13.2731 37.1579 11.4205 34.8106 11.4205C32.4633 11.4205 30.7028 13.2731 30.7028 15.7994C30.7028 18.3258 32.4214 20.1784 34.8106 20.1784C37.1579 20.1784 38.8765 18.3679 38.8765 15.7994Z" fill="#062B61"/>
<path d="M46.7563 30.9151V7.5888H51.2414V9.44143C51.9959 8.3888 53.7144 7.25195 55.9779 7.25195C60.3372 7.25195 63.6905 11.2098 63.6905 15.8414C63.6905 20.473 60.3372 24.4309 55.9779 24.4309C53.7144 24.4309 51.9959 23.2941 51.2414 22.2414V30.9572H46.7563V30.9151ZM59.1216 15.7993C59.1216 13.1888 57.4869 11.3362 55.0138 11.3362C52.5408 11.3362 50.906 13.2309 50.906 15.7993C50.906 18.4098 52.5408 20.2625 55.0138 20.2625C57.4869 20.3046 59.1216 18.4098 59.1216 15.7993Z" fill="#062B61"/>
<path d="M67.631 30.9152L71.0681 23.1257L64.1938 7.58887H69.098L73.4992 18.2415L77.8585 7.58887H82.8046L72.5352 30.9152H67.631Z" fill="#062B61"/>
<path d="M85.3193 0.683594H93.8282C97.7684 0.683594 100.744 3.75728 100.744 7.46254C100.744 9.27307 100.074 10.6204 98.9001 11.631C100.954 12.6415 102.337 14.5362 102.337 17.1468C102.337 21.0204 99.2774 24.0099 95.1277 24.0099H85.2773V0.683594H85.3193ZM93.4091 10.2415C95.0857 10.2415 96.1756 9.10465 96.1756 7.63096C96.1756 6.19938 95.0857 4.97833 93.4091 4.97833H90.0977V10.1994H93.4091V10.2415ZM94.8342 19.6731C96.6366 19.6731 97.7684 18.5362 97.7684 17.0204C97.7684 15.5046 96.6366 14.3257 94.8342 14.3257H90.0977V19.6731H94.8342Z" fill="#062B61"/>
<path d="M105.984 7.58932H110.469V10.242C111.014 8.64195 112.69 7.4209 114.535 7.4209C115.038 7.4209 115.499 7.463 116.044 7.63142V12.2209C115.373 12.0104 114.786 11.842 114.032 11.842C111.894 11.842 110.511 13.4841 110.511 16.2209V24.0946H105.984V7.58932Z" fill="#062B61"/>
<path d="M117.805 15.7994C117.805 10.9994 121.661 7.20996 126.439 7.20996C131.218 7.20996 135.074 10.9994 135.074 15.7994C135.074 20.6415 131.218 24.3889 126.439 24.3889C121.661 24.3889 117.805 20.6415 117.805 15.7994ZM130.505 15.7994C130.505 13.2731 128.787 11.4205 126.439 11.4205C124.092 11.4205 122.332 13.2731 122.332 15.7994C122.332 18.3258 124.05 20.1784 126.439 20.1784C128.745 20.1784 130.505 18.3679 130.505 15.7994Z" fill="#062B61"/>
</svg>
