<svg width="123" height="38" xmlns="http://www.w3.org/2000/svg">
 <defs>
  <linearGradient y2="0.725821" x2="-0.375359" y1="0.044329" x1="0.915006" id="paint0_linear_6932_22068">
   <stop stop-color="#00A0FF"/>
   <stop stop-color="#00A1FF" offset="0.006574"/>
   <stop stop-color="#00BEFF" offset="0.2601"/>
   <stop stop-color="#00D2FF" offset="0.5122"/>
   <stop stop-color="#00DFFF" offset="0.7604"/>
   <stop stop-color="#00E3FF" offset="1"/>
  </linearGradient>
  <linearGradient y2="0.491313" x2="-1.304643" y1="0.491313" x1="1.075904" id="paint1_linear_6932_22068">
   <stop stop-color="#FFE000"/>
   <stop stop-color="#FFBD00" offset="0.4087"/>
   <stop stop-color="#FFA500" offset="0.7754"/>
   <stop stop-color="#FF9C00" offset="1"/>
  </linearGradient>
  <linearGradient y2="1.959027" x2="-0.496326" y1="0.178481" x1="0.867254" id="paint2_linear_6932_22068">
   <stop stop-color="#FF3A44"/>
   <stop stop-color="#C31162" offset="1"/>
  </linearGradient>
  <linearGradient y2="0.25356" x2="0.414636" y1="-0.541547" x1="-0.193299" id="paint3_linear_6932_22068">
   <stop stop-color="#32A071"/>
   <stop stop-color="#2DA771" offset="0.0685"/>
   <stop stop-color="#15CF74" offset="0.4762"/>
   <stop stop-color="#06E775" offset="0.8009"/>
   <stop stop-color="#00F076" offset="1"/>
  </linearGradient>
  <linearGradient y2="-78.864894" x2="-184.650675" y1="-78.864894" x1="72.273591" id="paint4_linear_6932_22068">
   <stop stop-color="#CCB300"/>
   <stop stop-color="#CC9700" offset="0.4087"/>
   <stop stop-color="#CC8400" offset="0.7754"/>
   <stop stop-color="#CC7D00" offset="1"/>
  </linearGradient>
  <linearGradient y2="2.412904" x2="-0.492993" y1="-0.210319" x1="0.86247" id="paint5_linear_6932_22068">
   <stop stop-color="#CC2E36"/>
   <stop stop-color="#9C0E4E" offset="1"/>
  </linearGradient>
  <linearGradient y2="-3.428976" x2="-9.033707" y1="-14.317709" x1="22.02117" id="paint6_linear_6932_22068">
   <stop stop-color="#008DE0"/>
   <stop stop-color="#008DE0" offset="0.006574"/>
   <stop stop-color="#00A7E0" offset="0.2601"/>
   <stop stop-color="#00B8E0" offset="0.5122"/>
   <stop stop-color="#00C4E0" offset="0.7604"/>
   <stop stop-color="#00C7E0" offset="1"/>
  </linearGradient>
  <linearGradient y2="171.571925" x2="-110.674923" y1="-135.243262" x1="193.603575" id="paint7_linear_6932_22068">
   <stop stop-color="#E0333C"/>
   <stop stop-color="#AB0F56" offset="1"/>
  </linearGradient>
  <linearGradient y2="-0.000202" x2="-2.882263" y1="-0.000202" x1="1.127863" id="paint8_linear_6932_22068">
   <stop stop-color="#E0C500"/>
   <stop stop-color="#E0A600" offset="0.4087"/>
   <stop stop-color="#E09100" offset="0.7754"/>
   <stop stop-color="#E08900" offset="1"/>
  </linearGradient>
  <linearGradient y2="1.000227" x2="-2.881992" y1="1.000227" x1="1.127854" id="paint9_linear_6932_22068">
   <stop stop-color="#FFE840"/>
   <stop stop-color="#FFCE40" offset="0.4087"/>
   <stop stop-color="#FFBC40" offset="0.7754"/>
   <stop stop-color="#FFB540" offset="1"/>
  </linearGradient>
  <linearGradient y2="11.162121" x2="-9.040743" y1="0.766175" x1="22.038562" id="paint10_linear_6932_22068">
   <stop stop-color="#40B8FF"/>
   <stop stop-color="#40B9FF" offset="0.006574"/>
   <stop stop-color="#40CEFF" offset="0.2601"/>
   <stop stop-color="#40DDFF" offset="0.5122"/>
   <stop stop-color="#40E7FF" offset="0.7604"/>
   <stop stop-color="#40EAFF" offset="1"/>
  </linearGradient>
  <linearGradient y2="0.373535" x2="0.417196" y1="-0.797787" x1="-0.188068" id="paint11_linear_6932_22068">
   <stop stop-color="#65B895"/>
   <stop stop-color="#62BD95" offset="0.0685"/>
   <stop stop-color="#50DB97" offset="0.4762"/>
   <stop stop-color="#44ED98" offset="0.8009"/>
   <stop stop-color="#40F498" offset="1"/>
  </linearGradient>
 </defs>
 <g>
  <title>background</title>
  <rect fill="none" id="canvas_background" height="402" width="582" y="-1" x="-1"/>
 </g>
 <g>
  <title>Layer 1</title>
  <path id="svg_2" fill="#07152A" d="m94.263199,24.3563l1.571999,0l0,-10.255401l-1.571999,0l0,10.255401zm14.158798,-6.561201l-1.801994,4.446201l-0.054001,0l-1.870003,-4.446201l-1.693001,0l2.804001,6.214401l-1.598999,3.456699l1.640999,0l4.321999,-9.671101l-1.749001,0zm-8.914497,5.3964c-0.515602,0 -1.233398,-0.250599 -1.233398,-0.871c0,-0.791599 0.894699,-1.094999 1.666397,-1.094999c0.691505,0 1.016502,0.1451 1.436501,0.343201c-0.122002,0.949799 -0.961998,1.622799 -1.869499,1.622799zm0.189499,-5.620699c-1.1381,0 -2.316696,0.488298 -2.804497,1.5702l1.395096,0.5672c0.298203,-0.5672 0.853401,-0.7521 1.436401,-0.7521c0.813004,0 1.639,0.475199 1.653,1.319599l0,0.1054c-0.284996,-0.1583 -0.893997,-0.3957 -1.639496,-0.3957c-1.503799,0 -3.0354,0.804602 -3.0354,2.308802c0,1.3722 1.233398,2.2563 2.614998,2.2563c1.0569,0 1.6399,-0.461802 2.005898,-1.002701l0.054001,0l0,0.7915l1.516998,0l0,-3.9319c0,-1.820499 -1.394997,-2.836599 -3.196999,-2.836599zm-9.715202,1.4727l-2.235893,0l0,-3.515301l2.235893,0c1.175201,0 1.842506,0.947599 1.842506,1.757601c0,0.7948 -0.667305,1.7577 -1.842506,1.7577zm-0.040398,-4.942601l-3.766701,0l0,10.255401l1.571205,0l0,-3.885401l2.195496,0c1.742203,0 3.454903,-1.228399 3.454903,-3.185099c0,-1.956601 -1.7127,-3.184901 -3.454903,-3.184901zm-20.540001,9.0925c-1.086098,0 -1.9953,-0.885399 -1.9953,-2.1015c0,-1.228899 0.909203,-2.1278 1.9953,-2.1278c1.072205,0 1.913605,0.898901 1.913605,2.1278c0,1.216101 -0.8414,2.1015 -1.913605,2.1015zm1.805,-4.823999l-0.054298,0c-0.352798,-0.409599 -1.0317,-0.779699 -1.886597,-0.779699c-1.791603,0 -3.433701,1.532999 -3.433701,3.502199c0,1.955999 1.642097,3.475901 3.433701,3.475901c0.854897,0 1.533798,-0.370201 1.886597,-0.792801l0.054298,0l0,0.5021c0,1.3351 -0.732796,2.0487 -1.913597,2.0487c-0.9636,0 -1.560898,-0.674299 -1.805405,-1.242399l-1.370598,0.554998c0.3936,0.9251 1.438698,2.0618 3.176003,2.0618c1.845802,0 3.406601,-1.057499 3.406601,-3.6346l0,-6.264399l-1.493004,0l0,0.568199zm2.578705,5.9869l1.574394,0l0,-10.2557l-1.574394,0l0,10.2557zm3.895393,-3.383301c-0.040794,-1.3482 1.072205,-2.0352 1.872803,-2.0352c0.624802,0 1.1539,0.303801 1.329903,0.740301l-3.202705,1.294899zm4.886002,-1.162899c-0.298294,-0.780001 -1.208099,-2.2204 -3.067497,-2.2204c-1.845802,0 -3.379402,1.414099 -3.379402,3.488998c0,1.9561 1.520103,3.489101 3.555801,3.489101c1.642601,0 2.592804,-0.9781 2.986298,-1.5462l-1.221596,-0.7931c-0.406898,0.5816 -0.963799,0.964899 -1.764702,0.964899c-0.800697,0 -1.370598,-0.357 -1.737198,-1.057199l4.790901,-1.929701l-0.162605,-0.396399zm-38.1703,-1.149801l0,1.480101l3.637302,0c-0.108601,0.8326 -0.3936,1.4405 -0.827999,1.8634c-0.529102,0.5156 -1.357101,1.083801 -2.809303,1.083801c-2.239498,0 -3.990299,-1.7577 -3.990299,-3.938301c0,-2.1807 1.750801,-3.9386 3.990299,-3.9386c1.208,0 2.089901,0.4627 2.741501,1.057401l1.072201,-1.044001c-0.909302,-0.846 -2.117401,-1.4936 -3.813702,-1.4936c-3.067497,0 -5.646198,2.431899 -5.646198,5.418799c0,2.9869 2.578701,5.418501 5.646198,5.418501c1.655903,0 2.9044,-0.5284 3.8815,-1.519901c1.004402,-0.977999 1.3167,-2.3524 1.3167,-3.462399c0,-0.343901 -0.0271,-0.660801 -0.0816,-0.925201l-5.1166,0zm9.3335,4.5331c-1.085999,0 -2.022598,-0.872299 -2.022598,-2.1147c0,-1.255499 0.9366,-2.114599 2.022598,-2.114599c1.085602,0 2.022102,0.8591 2.022102,2.114599c0,1.242401 -0.936501,2.1147 -2.022102,2.1147zm0,-5.603699c-1.9818,0 -3.596996,1.466999 -3.596996,3.488998c0,2.008902 1.615196,3.489101 3.596996,3.489101c1.981403,0 3.5965,-1.4802 3.5965,-3.489101c0,-2.021999 -1.615097,-3.488998 -3.5965,-3.488998zm7.846001,5.603699c-1.085598,0 -2.022301,-0.872299 -2.022301,-2.1147c0,-1.255499 0.936703,-2.114599 2.022301,-2.114599c1.085701,0 2.022202,0.8591 2.022202,2.114599c0,1.242401 -0.936501,2.1147 -2.022202,2.1147zm0,-5.603699c-1.981697,0 -3.5966,1.466999 -3.5966,3.488998c0,2.008902 1.614902,3.489101 3.5966,3.489101c1.9814,0 3.596603,-1.4802 3.596603,-3.489101c0,-2.021999 -1.615204,-3.488998 -3.596603,-3.488998z"/>
  <path id="svg_3" fill="url(#paint0_linear_6932_22068)" d="m10.0261,30.514601l-0.07019,-0.0667c-0.275,-0.2892 -0.43736,-0.738201 -0.43736,-1.3197l0,0.136799l0,-20.771319c0,-0.00188 0,-0.00329 0,-0.00479c0,0.001781 0,0.00329 0,0.00516l0,0.13722c0,-0.629641 0.18929,-1.10393 0.50645,-1.38832l11.708601,11.63625l-11.7075,11.635401zm-0.50755,-22.026841c0,-0.051749 0.00142,-0.10199 0.00407,-0.151489c-0.00265,0.04912 -0.00407,0.09974 -0.00407,0.151489zm0.00407,-0.15374c0,-0.00066 0,-0.00141 0.000279,-0.00216c-0.000279,0.000751 -0.000279,0.0015 -0.000279,0.00216zm0.000279,-0.006579c0,-0.00037 0,-0.000751 0,-0.00113c0,0.00038 0,0.00076 0,0.00113z"/>
  <path id="svg_4" fill="url(#paint1_linear_6932_22068)" d="m25.6366,22.8965l0.088999,-0.050299l4.623901,-2.611c0.440899,-0.249102 0.734699,-0.551102 0.881199,-0.870602c-0.1462,0.3195 -0.439999,0.621901 -0.881199,0.870901l-4.623901,2.611099l-0.088999,0.0499zm0.0012,-0.1376l-3.9034,-3.879999l3.903,-3.8794l4.712101,2.660601c0.5984,0.337898 0.934399,0.773399 0.990499,1.218399c0,0.000401 0,0.001101 0,0.001801c-0.056101,0.443899 -0.392099,0.879799 -0.990499,1.217699l-4.7117,2.6609z"/>
  <path id="svg_5" fill="url(#paint2_linear_6932_22068)" d="m10.8608,30.957001c-0.3271,0 -0.6125,-0.1056 -0.835,-0.305201l0.000401,-0.000401c0.2225,0.1996 0.5083,0.305601 0.8354,0.305601c0.0283,0 0.0571,-0.0007 0.0863,-0.0021c-0.0295,0.0014 -0.0587,0.0021 -0.0871,0.0021zm0.000401,-0.1376c-0.327101,0.000399 -0.6125,-0.1056 -0.835,-0.305201l0,-0.000299l11.7074,-11.6355l3.903399,3.880098l-13.717099,7.7458c-0.3795,0.213902 -0.7391,0.315102 -1.0587,0.315102zm-0.838301,-0.170101c-0.0207,-0.0187 -0.04105,-0.038599 -0.060989,-0.059099l0.060989,0.059099z"/>
  <path id="svg_6" fill="url(#paint3_linear_6932_22068)" d="m21.7349,18.878901l-11.7085,-11.63622c0.222501,-0.1992 0.507501,-0.30486 0.834201,-0.30486c0.320499,0 0.6803,0.10162 1.060599,0.31585l13.7167,7.74583l-3.903,3.8794zm3.991301,-3.967001l-13.805,-7.79536c-0.3803,-0.21432 -0.7401,-0.31594 -1.060599,-0.31594c-0.0015,0 -0.002501,0 -0.004001,0c0.0019,0 0.003301,0 0.0055,0c0.3197,0 0.6792,0.10124 1.0591,0.31557l13.805,7.79573z"/>
  <path id="svg_7" fill="#07152A" d="m10.948,30.955099c0.2972,-0.016899 0.6261,-0.1185 0.972,-0.313299l13.7159,-7.745501l-13.7159,7.745501c-0.3456,0.195101 -0.6748,0.2964 -0.972,0.313299zm-0.9221,-0.303099l-0.0029,-0.002501c0.001,0.0007 0.0021,0.001699 0.0029,0.002501zm-0.06389,-0.0616l-0.00596,-0.0058l0,-0.000401c0.00227,0.0021 0.00407,0.004299 0.00596,0.006201z"/>
  <path id="svg_8" fill="url(#paint4_linear_6932_22068)" d="m25.6367,22.8965l0.089001,-0.050299l-0.089001,0.050299z"/>
  <path id="svg_9" fill="url(#paint5_linear_6932_22068)" d="m10.8617,30.957001c-0.3271,0 -0.6129,-0.106001 -0.8354,-0.305601l-0.000401,0.000401c-0.0008,-0.000801 -0.0019,-0.001801 -0.0029,-0.002501l-0.060989,-0.059099c-0.00189,-0.0019 -0.003691,-0.004101 -0.00596,-0.006201l0.070251,-0.069799c0.2225,0.1996 0.507899,0.305599 0.835,0.305201c0.319599,0 0.679199,-0.1012 1.0587,-0.315102l13.7171,-7.7458l0.0879,0.087301l-0.089001,0.050299l-13.716,7.745501c-0.345901,0.1947 -0.6748,0.2964 -0.972,0.313301c-0.0292,0.0014 -0.058,0.0021 -0.0863,0.0021z"/>
  <path id="svg_10" fill="#07152A" d="m9.95591,30.584c-0.275,-0.2892 -0.43736,-0.738199 -0.43736,-1.3197l0,-0.000399c0,0.5819 0.16236,1.030499 0.43736,1.319698l0,0.000401z"/>
  <path id="svg_11" fill="url(#paint6_linear_6932_22068)" d="m9.95591,30.584c-0.275,-0.2892 -0.43736,-0.7379 -0.43736,-1.3197l0,-0.136799c0,0.5814 0.16236,1.0305 0.43736,1.319599l0.07019,0.066801l-0.07019,0.070099z"/>
  <path id="svg_12" fill="url(#paint7_linear_6932_22068)" d="m9.95605,30.584l0.070251,-0.070099l0,0.000299l-0.070251,0.069799z"/>
  <path id="svg_13" fill="#07152A" d="m31.230499,19.3633c0.072601,-0.1586 0.109201,-0.3214 0.109201,-0.4844c0,-0.0002 0,-0.000601 0,-0.000601c0,0.1632 -0.0366,0.326099 -0.109201,0.485001z"/>
  <path id="svg_14" fill="url(#paint8_linear_6932_22068)" d="m25.725599,22.845699l-0.0879,-0.087299l4.7117,-2.660999c0.5984,-0.337801 0.934401,-0.773701 0.990499,-1.217701c0,0.163 -0.036598,0.3258 -0.1092,0.4844c-0.146599,0.3195 -0.440399,0.6215 -0.8813,0.870501l-4.6238,2.611099z"/>
  <path id="svg_15" fill="#07152A" d="m31.3393,18.878901l0,-0.000401c-0.000401,-0.491301 -0.3307,-0.9825 -0.9904,-1.3552l-4.623899,-2.6111l-0.000401,0l0.000401,-0.0003l4.623899,2.611c0.6604,0.372801 0.991199,0.8647 0.9904,1.356001z"/>
  <path id="svg_16" fill="url(#paint9_linear_6932_22068)" d="m31.3403,18.877001c-0.056099,-0.445002 -0.392099,-0.880501 -0.990499,-1.2185l-4.712101,-2.660501l0.0879,-0.0874l0.000401,0l4.6238,2.6111c0.6597,0.372801 0.990099,0.864 0.990499,1.355301z"/>
  <path id="svg_17" fill="#07152A" d="m9.51855,8.48828c0,-0.00037 0,-0.000751 0,-0.00113c0,0.00038 0,0.00076 0,0.00113zm0.00407,-0.15262c0,-0.00075 0,-0.0015 0,-0.00225c0,0.00075 0,0.0015 0,0.00225zm0.000279,-0.00441c0,-0.001511 0,-0.002911 0,-0.00442c0,0.00151 0,0.00291 0,0.00442zm0,-0.00554c0.05472,-0.96484 0.582601,-1.52217 1.3294,-1.52545c-0.3238,0.00188 -0.6058,0.10754 -0.8266,0.30524l0,-0.00038l-0.0026,0.00263c-0.02325,0.02085 -0.04536,0.04292 -0.06719,0.06565c-0.24807,0.26082 -0.40456,0.65153 -0.43301,1.15231z"/>
  <path id="svg_18" fill="url(#paint10_linear_6932_22068)" d="m9.51855,8.62988l0,-0.13721c0,-0.00188 0,-0.00338 0,-0.00517c0,-0.00037 0,-0.000751 0,-0.00113c0,-0.05175 0.00142,-0.10237 0.00407,-0.15149c0,-0.00075 0,-0.0015 0,-0.00225c0,-0.00066 0,-0.00141 0.000279,-0.00216c0,-0.00151 0,-0.00291 0,-0.00442c0,-0.00037 0,-0.00075 0,-0.00112c0.02845,-0.50079 0.18494,-0.8915 0.43301,-1.15231l0.06909,0.06894c-0.31716,0.28439 -0.50645,0.75868 -0.50645,1.38832zm0.50455,-1.52291l0.0026,-0.00263c-0.0007,0.00113 -0.0018,0.00188 -0.0026,0.00263z"/>
  <path id="svg_19" fill="url(#paint11_linear_6932_22068)" d="m25.6367,14.998l-13.7167,-7.74582c-0.380301,-0.21423 -0.7401,-0.31585 -1.0606,-0.31585c-0.3267,0 -0.6117,0.10566 -0.8343,0.30486l-0.06905,-0.06894c0.02183,-0.02273 0.04395,-0.0448 0.06715,-0.06565c0.0008,-0.00075 0.0019,-0.0015 0.0027,-0.00225c0.2207,-0.1977 0.5027,-0.30336 0.8265,-0.30524c0.0008,0 0.001801,0 0.0029,0c0.0015,0 0.0026,0 0.0041,0c0.3205,0 0.6803,0.10162 1.0606,0.31595l13.805,7.795341l-0.000401,0.000299l-0.0879,0.0873z"/>
 </g>
</svg>