<svg width="40" height="40" viewBox="0 0 40 40" fill="none" xmlns="http://www.w3.org/2000/svg">
<path d="M10.6222 32.3281L10.5478 32.2574C10.2565 31.951 10.0845 31.4753 10.0845 30.8593V31.0042V8.99827C10.0845 8.99628 10.0845 8.99479 10.0845 8.9932C10.0845 8.99509 10.0845 8.99668 10.0845 8.99867V9.14404C10.0845 8.47698 10.285 7.97449 10.621 7.6732L23.0255 20.0011L10.6222 32.3281ZM10.0845 8.992C10.0845 8.93718 10.086 8.88394 10.0888 8.8315C10.086 8.88354 10.0845 8.93718 10.0845 8.992ZM10.0888 8.82912C10.0888 8.82842 10.0888 8.82763 10.0891 8.82683C10.0888 8.82763 10.0888 8.82842 10.0888 8.82912ZM10.0891 8.82215C10.0891 8.82175 10.0891 8.82136 10.0891 8.82096C10.0891 8.82136 10.0891 8.82175 10.0891 8.82215Z" fill="url(#paint0_linear_10725_150)"/>
<path d="M27.1601 24.2578L27.2544 24.2046L32.1531 21.4383C32.6201 21.1744 32.9314 20.8545 33.0867 20.516C32.9318 20.8545 32.6204 21.1748 32.1531 21.4387L27.2544 24.205L27.1601 24.2578ZM27.1613 24.112L23.0259 20.0014L27.1609 15.8914L32.1531 18.7102C32.787 19.0682 33.143 19.5296 33.2024 20.001C33.2024 20.0014 33.2024 20.0022 33.2024 20.0029C33.143 20.4732 32.787 20.935 32.1531 21.2929L27.1613 24.112Z" fill="url(#paint1_linear_10725_150)"/>
<path d="M11.5065 32.7979C11.16 32.7979 10.8577 32.6859 10.6219 32.4745L10.6223 32.4741C10.8581 32.6855 11.1608 32.7979 11.5073 32.7979C11.5374 32.7979 11.5679 32.7971 11.5988 32.7956C11.5675 32.7971 11.5366 32.7979 11.5065 32.7979ZM11.5069 32.6521C11.1604 32.6525 10.8581 32.5401 10.6223 32.3287V32.3284L23.0256 20.0013L27.161 24.112L12.6286 32.3182C12.2265 32.5448 11.8455 32.6521 11.5069 32.6521ZM10.6188 32.4718C10.5969 32.452 10.5753 32.431 10.5542 32.4092L10.6188 32.4718Z" fill="url(#paint2_linear_10725_150)"/>
<path d="M23.0256 20.002L10.6211 7.67409C10.8569 7.46305 11.1588 7.35111 11.5049 7.35111C11.8444 7.35111 12.2257 7.45877 12.6286 7.68574L27.1606 15.892L23.0256 20.002ZM27.2541 15.7992L12.6286 7.54046C12.2257 7.3134 11.8444 7.20574 11.5049 7.20574C11.5033 7.20574 11.5022 7.20574 11.5006 7.20574C11.5026 7.20574 11.5041 7.20574 11.5065 7.20574C11.8452 7.20574 12.2261 7.313 12.6286 7.54006L27.2541 15.7992Z" fill="url(#paint3_linear_10725_150)"/>
<path d="M11.5988 32.7949C11.9136 32.777 12.2621 32.6693 12.6285 32.463L27.1597 24.2571L12.6285 32.463C12.2624 32.6697 11.9136 32.777 11.5988 32.7949ZM10.6218 32.4738L10.6187 32.4711C10.6198 32.4719 10.621 32.473 10.6218 32.4738ZM10.5542 32.4086L10.5479 32.4024V32.402C10.5503 32.4043 10.5522 32.4066 10.5542 32.4086Z" fill="black"/>
<path d="M27.1597 24.2578L27.2533 24.2046L27.1597 24.2578Z" fill="url(#paint4_linear_10725_150)"/>
<path d="M11.5073 32.7979C11.1608 32.7979 10.858 32.6855 10.6222 32.4741L10.6218 32.4745C10.621 32.4737 10.6198 32.4726 10.6187 32.4718L10.5542 32.4092C10.5522 32.4072 10.5503 32.4049 10.5479 32.4026L10.6222 32.3287C10.858 32.5401 11.1604 32.6525 11.5069 32.6521C11.8455 32.6521 12.2264 32.5448 12.6285 32.3182L27.1609 24.112L27.254 24.2045L27.1597 24.2578L12.6285 32.4636C12.2621 32.67 11.9136 32.7777 11.5988 32.7956C11.5679 32.7971 11.5373 32.7979 11.5073 32.7979Z" fill="url(#paint5_linear_10725_150)"/>
<path d="M10.5478 32.4033C10.2565 32.097 10.0845 31.6212 10.0845 31.0052V31.0048C10.0845 31.6212 10.2565 32.0966 10.5478 32.4029V32.4033Z" fill="black"/>
<path d="M10.5478 32.4033C10.2565 32.097 10.0845 31.6216 10.0845 31.0052V30.8602C10.0845 31.4763 10.2565 31.952 10.5478 32.2583L10.6222 32.3291L10.5478 32.4033Z" fill="url(#paint6_linear_10725_150)"/>
<path d="M10.5479 32.4033L10.6217 32.3291V32.3294L10.5479 32.4033Z" fill="url(#paint7_linear_10725_150)"/>
<path d="M33.0864 20.5166C33.1628 20.3486 33.2013 20.1761 33.2013 20.0035C33.2013 20.0032 33.2013 20.0028 33.2013 20.0028C33.2013 20.1757 33.1628 20.3482 33.0864 20.5166Z" fill="black"/>
<path d="M27.2542 24.2051L27.1611 24.1125L32.1529 21.2934C32.7869 20.9355 33.1428 20.4737 33.2023 20.0034C33.2023 20.176 33.1635 20.3486 33.0865 20.5165C32.9313 20.855 32.62 21.1749 32.1529 21.4388L27.2542 24.2051Z" fill="url(#paint8_linear_10725_150)"/>
<path d="M33.2019 20.002V20.0016C33.2015 19.4811 32.8515 18.9607 32.1525 18.5657L27.2538 15.7995H27.2534L27.2538 15.7992L32.1525 18.5653C32.8523 18.9603 33.2027 19.4815 33.2019 20.002Z" fill="#404040"/>
<path d="M33.2027 20.001C33.1432 19.5295 32.7873 19.0681 32.1533 18.7101L27.1611 15.8914L27.2542 15.7989H27.2546L32.1533 18.5652C32.8523 18.9601 33.2023 19.4805 33.2027 20.001Z" fill="url(#paint9_linear_10725_150)"/>
<path d="M10.0845 8.99414C10.0845 8.99374 10.0845 8.99335 10.0845 8.99295C10.0845 8.99335 10.0845 8.99374 10.0845 8.99414ZM10.0888 8.83245C10.0888 8.83165 10.0888 8.83086 10.0888 8.83006C10.0888 8.83086 10.0888 8.83165 10.0888 8.83245ZM10.0891 8.82777C10.0891 8.82618 10.0891 8.82469 10.0891 8.8231C10.0891 8.82469 10.0891 8.82618 10.0891 8.82777ZM10.0891 8.8219C10.147 7.79971 10.7063 7.20927 11.4974 7.20578C11.1544 7.20777 10.8557 7.31971 10.6218 7.52917V7.52877L10.619 7.53155C10.5944 7.55364 10.5709 7.57703 10.5478 7.60111C10.285 7.87742 10.1192 8.29136 10.0891 8.8219Z" fill="#404040"/>
<path d="M10.0845 9.14453V8.99916C10.0845 8.99717 10.0845 8.99558 10.0845 8.99369C10.0845 8.99329 10.0845 8.99289 10.0845 8.99249C10.0845 8.93767 10.086 8.88403 10.0888 8.83199C10.0888 8.8312 10.0888 8.8304 10.0888 8.82961C10.0888 8.82891 10.0888 8.82811 10.0891 8.82732C10.0891 8.82573 10.0891 8.82423 10.0891 8.82264C10.0891 8.82224 10.0891 8.82185 10.0891 8.82145C10.1192 8.2909 10.285 7.87697 10.5478 7.60065L10.621 7.67369C10.285 7.97498 10.0845 8.47747 10.0845 9.14453ZM10.619 7.5311L10.6218 7.52831C10.621 7.52951 10.6198 7.5303 10.619 7.5311Z" fill="url(#paint10_linear_10725_150)"/>
<path d="M27.1605 15.8916L12.6285 7.68533C12.2256 7.45837 11.8444 7.35071 11.5049 7.35071C11.1588 7.35071 10.8568 7.46265 10.621 7.67369L10.5479 7.60065C10.571 7.57658 10.5944 7.55319 10.619 7.5311C10.6198 7.53031 10.621 7.52951 10.6218 7.52872C10.8557 7.31926 11.1545 7.20732 11.4975 7.20533C11.4983 7.20533 11.4994 7.20533 11.5006 7.20533C11.5022 7.20533 11.5033 7.20533 11.5049 7.20533C11.8444 7.20533 12.2256 7.31299 12.6285 7.54006L27.254 15.7988L27.2536 15.7991L27.1605 15.8916Z" fill="url(#paint11_linear_10725_150)"/>
<defs>
<linearGradient id="paint0_linear_10725_150" x1="21.9256" y1="8.76613" x2="5.22691" y2="25.5682" gradientUnits="userSpaceOnUse">
<stop stop-color="#00A0FF"/>
<stop offset="0.00657445" stop-color="#00A1FF"/>
<stop offset="0.2601" stop-color="#00BEFF"/>
<stop offset="0.5122" stop-color="#00D2FF"/>
<stop offset="0.7604" stop-color="#00DFFF"/>
<stop offset="1" stop-color="#00E3FF"/>
</linearGradient>
<linearGradient id="paint1_linear_10725_150" x1="33.9748" y1="20.002" x2="9.74915" y2="20.002" gradientUnits="userSpaceOnUse">
<stop stop-color="#FFE000"/>
<stop offset="0.4087" stop-color="#FFBD00"/>
<stop offset="0.7754" stop-color="#FFA500"/>
<stop offset="1" stop-color="#FF9C00"/>
</linearGradient>
<linearGradient id="paint2_linear_10725_150" x1="24.9565" y1="22.2852" x2="2.31181" y2="45.0701" gradientUnits="userSpaceOnUse">
<stop stop-color="#FF3A44"/>
<stop offset="1" stop-color="#C31162"/>
</linearGradient>
<linearGradient id="paint3_linear_10725_150" x1="7.40599" y1="0.275985" x2="17.5177" y2="10.4503" gradientUnits="userSpaceOnUse">
<stop stop-color="#32A071"/>
<stop offset="0.0685" stop-color="#2DA771"/>
<stop offset="0.4762" stop-color="#15CF74"/>
<stop offset="0.8009" stop-color="#06E775"/>
<stop offset="1" stop-color="#00F076"/>
</linearGradient>
<linearGradient id="paint4_linear_10725_150" x1="33.9219" y1="20.0021" x2="9.88308" y2="20.0021" gradientUnits="userSpaceOnUse">
<stop stop-color="#CCB300"/>
<stop offset="0.4087" stop-color="#CC9700"/>
<stop offset="0.7754" stop-color="#CC8400"/>
<stop offset="1" stop-color="#CC7D00"/>
</linearGradient>
<linearGradient id="paint5_linear_10725_150" x1="24.9564" y1="22.2852" x2="2.31178" y2="45.0701" gradientUnits="userSpaceOnUse">
<stop stop-color="#CC2E36"/>
<stop offset="1" stop-color="#9C0E4E"/>
</linearGradient>
<linearGradient id="paint6_linear_10725_150" x1="21.9256" y1="8.76715" x2="5.22699" y2="25.5693" gradientUnits="userSpaceOnUse">
<stop stop-color="#008DE0"/>
<stop offset="0.00657445" stop-color="#008DE0"/>
<stop offset="0.2601" stop-color="#00A7E0"/>
<stop offset="0.5122" stop-color="#00B8E0"/>
<stop offset="0.7604" stop-color="#00C4E0"/>
<stop offset="1" stop-color="#00C7E0"/>
</linearGradient>
<linearGradient id="paint7_linear_10725_150" x1="24.846" y1="22.2857" x2="2.20058" y2="44.8964" gradientUnits="userSpaceOnUse">
<stop stop-color="#E0333C"/>
<stop offset="1" stop-color="#AB0F56"/>
</linearGradient>
<linearGradient id="paint8_linear_10725_150" x1="33.9747" y1="20.0025" x2="9.74902" y2="20.0025" gradientUnits="userSpaceOnUse">
<stop stop-color="#E0C500"/>
<stop offset="0.4087" stop-color="#E0A600"/>
<stop offset="0.7754" stop-color="#E09100"/>
<stop offset="1" stop-color="#E08900"/>
</linearGradient>
<linearGradient id="paint9_linear_10725_150" x1="33.9751" y1="20.002" x2="9.74943" y2="20.002" gradientUnits="userSpaceOnUse">
<stop stop-color="#FFE840"/>
<stop offset="0.4087" stop-color="#FFCE40"/>
<stop offset="0.7754" stop-color="#FFBC40"/>
<stop offset="1" stop-color="#FFB540"/>
</linearGradient>
<linearGradient id="paint10_linear_10725_150" x1="21.9256" y1="8.76662" x2="5.22695" y2="25.5688" gradientUnits="userSpaceOnUse">
<stop stop-color="#40B8FF"/>
<stop offset="0.00657445" stop-color="#40B9FF"/>
<stop offset="0.2601" stop-color="#40CEFF"/>
<stop offset="0.5122" stop-color="#40DDFF"/>
<stop offset="0.7604" stop-color="#40E7FF"/>
<stop offset="1" stop-color="#40EAFF"/>
</linearGradient>
<linearGradient id="paint11_linear_10725_150" x1="7.40593" y1="0.275579" x2="17.5177" y2="10.4499" gradientUnits="userSpaceOnUse">
<stop stop-color="#65B895"/>
<stop offset="0.0685" stop-color="#62BD95"/>
<stop offset="0.4762" stop-color="#50DB97"/>
<stop offset="0.8009" stop-color="#44ED98"/>
<stop offset="1" stop-color="#40F498"/>
</linearGradient>
</defs>
</svg>
